<svg xmlns="http://www.w3.org/2000/svg" version="1.1" xmlns:xlink="http://www.w3.org/1999/xlink" xmlns:svgjs="http://svgjs.dev/svgjs" width="1000" height="803" viewBox="0 0 1000 803"><g transform="matrix(1,0,0,1,0,0)"><svg viewBox="0 0 448 360" data-background-color="#ffffff" preserveAspectRatio="xMidYMid meet" height="803" width="1000" xmlns="http://www.w3.org/2000/svg" xmlns:xlink="http://www.w3.org/1999/xlink"><g id="tight-bounds" transform="matrix(1,0,0,1,0,0)"><svg viewBox="0 0 448 360" height="360" width="448"><g><svg></svg></g><g><svg viewBox="0 0 448 360" height="360" width="448"><g><path d="M193.855 44.683c1.378 0 2.494 1.116 2.495 2.494 0 1.378-1.116 2.494-2.495 2.495h-23.846l-17.167 17.167c-0.973 0.973-2.551 0.973-3.53 0-0.973-0.973-0.973-2.551 0-3.529l13.644-13.645h-40.378c-11.518 0-19.151 2.688-23.815 8.113-4.739 5.519-6.66 14.056-6.66 25.63 0 0.069 0 0.137-0.006 0.206l0.212 36.692 14.692-14.692c0.973-0.973 2.551-0.973 3.53 0 0.973 0.973 0.973 2.551 0 3.53l-18.178 18.178c0.206 35.832 0.193 71.358-0.013 107.19 25.486 25.2 50.617 50.312 75.811 75.791h25.38c1.378 0 2.494 1.116 2.495 2.495 0 1.378-1.116 2.494-2.495 2.494h-20.448l25.942 26.241 0.006-0.006c8.188 8.188 15.577 12.859 22.824 13.413 7.146 0.543 14.442-2.956 22.586-11.093l28.555-28.555h-20.722c-1.378 0-2.494-1.116-2.495-2.494 0-1.378 1.116-2.494 2.495-2.495h25.711l16.625-16.625c0.973-0.973 2.551-0.973 3.529 0 0.973 0.973 0.973 2.551 0 3.53l-13.101 13.102h40.377c11.518 0 19.151-2.688 23.815-8.113 4.739-5.519 6.66-14.056 6.66-25.63h0.013l-0.212-36.898-16.014 16.014c-0.973 0.973-2.551 0.973-3.53 0-0.973-0.973-0.973-2.551 0-3.53l19.5-19.5c-0.206-35.832-0.193-71.358 0.013-107.19-25.486-25.2-50.617-50.312-75.811-75.791h-26.147c-1.378 0-2.494-1.116-2.495-2.495 0-1.378 1.116-2.494 2.495-2.494h21.215l-25.824-26.123c-0.044-0.037-0.081-0.075-0.124-0.112-8.188-8.188-15.577-12.859-22.824-13.413-7.146-0.543-14.442 2.956-22.586 11.093l-28.555 28.555h18.858zM122.578 44.683h45.367l32.078-32.078c9.248-9.248 17.81-13.195 26.484-12.534 8.568 0.649 16.956 5.824 25.985 14.854 0.05 0.05 0.094 0.094 0.137 0.143l29.278 29.615h43.508c13.071 0 21.919 3.268 27.594 9.871 5.6 6.517 7.864 16.101 7.864 28.867 0 0.081-0.006 0.156-0.012 0.23l-0.225 39.742 28.43 28.112 0.006-0.006c9.03 9.03 14.206 17.411 14.854 25.985 0.661 8.674-3.293 17.236-12.534 26.484l-30.768 30.768 0.237 41.843h0.012c0 12.765-2.27 22.35-7.864 28.867-5.675 6.604-14.524 9.872-27.594 9.871h-45.366l-32.078 32.078c-9.248 9.248-17.81 13.195-26.484 12.534-8.568-0.649-16.956-5.824-25.985-14.854l0.006-0.006-29.421-29.758h-43.509c-13.071 0-21.919-3.268-27.594-9.872-5.6-6.517-7.864-16.101-7.863-28.866h0.012l0.231-39.972-28.293-27.969c-0.05-0.044-0.1-0.087-0.143-0.137-9.03-9.03-14.206-17.411-14.854-25.985-0.661-8.674 3.293-17.236 12.534-26.484l30.768-30.768-0.237-41.607c-0.006-0.075-0.012-0.156-0.012-0.23 0-12.765 2.27-22.35 7.864-28.867 5.675-6.604 14.524-9.872 27.594-9.871zM87.682 179.997l-0.274-47.724-27.276 27.276c-8.138 8.138-11.636 15.44-11.094 22.587 0.549 7.246 5.226 14.642 13.413 22.823 0.037 0.037 0.081 0.081 0.113 0.125l24.837 24.551 0.281-49.644zM92.303 241.483l-0.2 35.09h0.013c0 11.58 1.921 20.117 6.66 25.63 4.664 5.432 12.297 8.113 23.815 8.113h38.576l-33.55-33.936-35.308-34.903zM325.415 49.672h-38.575l33.549 33.936 35.308 34.902 0.2-34.884c-0.006-0.069-0.006-0.137-0.007-0.205 0-11.58-1.921-20.117-6.66-25.63-4.664-5.432-12.297-8.113-23.815-8.113zM360.599 130.352l-0.281 49.645 0.274 47.724 27.276-27.276c8.138-8.138 11.636-15.44 11.094-22.587-0.549-7.252-5.226-14.642-13.413-22.824l0.006-0.006-24.956-24.669z" fill="#1c0963" fill-rule="nonzero" stroke="none" stroke-width="1" stroke-linecap="butt" stroke-linejoin="miter" stroke-miterlimit="10" stroke-dasharray="" stroke-dashoffset="0" font-family="none" font-weight="none" font-size="none" text-anchor="none" style="mix-blend-mode: normal" data-fill-palette-color="tertiary"></path></g><g transform="matrix(1,0,0,1,112,139.11903780626318)"><svg viewBox="0 0 224 81.76192438747364" height="81.76192438747364" width="224"><g><svg viewBox="0 0 224 81.76192438747364" height="81.76192438747364" width="224"><g><svg viewBox="0 0 224 81.76192438747364" height="81.76192438747364" width="224"><g><svg viewBox="0 0 224 81.76192438747364" height="81.76192438747364" width="224"><g><svg viewBox="0 0 224 81.76192438747364" height="81.76192438747364" width="224"><rect width="224" height="81.76192438747364" x="0" y="0" opacity="1" fill="#1c0963" data-fill-palette-color="tertiary"></rect><g transform="matrix(1,0,0,1,17.19,17.190000000000005)"><svg width="189.62" viewBox="2.76 -37.6 150.46 37.6" height="47.38192438747363" data-palette-color="#ffffff"><path d="M2.76 0L2.76-6.69 6.2-6.69 6.2-30.3 2.76-30.3 2.76-37.01 17.99-37.01 28.91-10.3 39.04-37.01 54.49-37.01 54.49-30.3 51.05-30.3 51.05-6.69 54.44-6.69 54.44 0 40.6 0 40.6-6.69 43.14-6.69 43.14-27.98 32.06-0.44 25.2-0.44 13.92-27.25 13.92-6.69 16.67-6.69 16.67 0 2.76 0ZM60.01-30.3L60.01-37.01 75.85-37.01 75.85-30.3 71.95-30.3 71.95-6.69 80-6.69Q80.32-6.69 80.62-6.87 80.93-7.06 81.16-7.35 81.39-7.64 81.54-7.98 81.69-8.33 81.69-8.64L81.69-8.64 81.69-13.6 89.6-13.6 89.6 0 60.01 0 60.01-6.69 63.84-6.69 63.84-30.3 60.01-30.3ZM93.21 0L93.21-6.35 106-19.95Q107.66-21.56 108.56-23.17 109.47-24.78 109.47-26.44L109.47-26.44Q109.47-27.15 109.17-27.84 108.88-28.54 108.33-29.09 107.78-29.64 106.99-29.97 106.2-30.3 105.2-30.3L105.2-30.3Q104-30.3 103.11-29.92 102.22-29.54 101.62-28.88 101.02-28.22 100.7-27.34 100.39-26.46 100.36-25.49L100.36-25.49 93.01-25.49Q93.01-28.37 93.96-30.63 94.92-32.89 96.59-34.44 98.26-35.99 100.51-36.79 102.75-37.6 105.32-37.6L105.32-37.6Q107.73-37.6 109.92-36.87 112.1-36.13 113.78-34.72 115.45-33.3 116.43-31.23 117.4-29.15 117.4-26.44L117.4-26.44Q117.4-24.27 116.51-22.42 115.62-20.58 114.11-18.9L114.11-18.9 103.56-7.5 117.35-7.5 117.35 0 93.21 0ZM120.87-30.3L120.87-37.01 135.08-37.01Q137.61-37.01 139.95-36.35 142.28-35.69 144.29-34.5 146.31-33.3 147.95-31.63 149.6-29.96 150.77-27.91 151.95-25.85 152.58-23.49 153.22-21.12 153.22-18.55L153.22-18.55Q153.22-15.99 152.58-13.62 151.95-11.25 150.77-9.19 149.6-7.13 147.95-5.43 146.31-3.74 144.29-2.53 142.28-1.32 139.95-0.66 137.61 0 135.08 0L135.08 0 120.87 0 120.87-6.69 123.82-6.69 123.82-30.3 120.87-30.3ZM135.03-30.3L131.93-30.3 131.93-6.69 135.03-6.69Q137-6.69 138.76-7.62 140.52-8.54 141.81-10.14 143.11-11.74 143.86-13.9 144.62-16.06 144.62-18.55L144.62-18.55Q144.62-21.02 143.86-23.17 143.11-25.32 141.81-26.9 140.52-28.49 138.76-29.39 137-30.3 135.03-30.3L135.03-30.3Z" opacity="1" transform="matrix(1,0,0,1,0,0)" fill="#ffffff" class="undefined-text-0" data-fill-palette-color="quaternary" id="text-0"></path></svg></g></svg></g></svg></g></svg></g></svg></g></svg></g></svg></g><defs></defs></svg><rect width="448" height="360" fill="none" stroke="none" visibility="hidden"></rect></g></svg></g></svg>